<svg xmlns="http://www.w3.org/2000/svg" width="36" height="36" fill="none" viewBox="0 0 36 36">
  <path fill="#000" fill-rule="evenodd" d="M8.28 6.295c-2.627 1.201-4.53 4.044-4.53 7.41 0 3.414 1.402 6.04 3.377 8.264 1.62 1.823 3.584 3.337 5.467 4.79.444.341.884.68 1.313 1.018.786.62 1.51 1.182 2.214 1.594.705.412 1.32.629 1.879.629.56 0 1.174-.217 1.879-.629.704-.412 1.428-.974 2.214-1.594.43-.338.869-.677 1.313-1.019 1.883-1.452 3.848-2.966 5.467-4.79 1.975-2.224 3.377-4.85 3.377-8.262 0-3.367-1.903-6.21-4.53-7.41-2.581-1.18-5.997-.832-9.18 2.475a.75.75 0 0 1-1.08 0c-3.183-3.307-6.599-3.655-9.18-2.476Zm9.72.902c-3.434-3.224-7.273-3.67-10.343-2.266C4.472 6.387 2.25 9.778 2.25 13.706c0 3.88 1.613 6.846 3.755 9.259 1.724 1.94 3.83 3.562 5.72 5.017.43.333.851.656 1.253.973.772.609 1.577 1.238 2.386 1.711.81.473 1.696.834 2.636.834.94 0 1.826-.36 2.636-.834.81-.473 1.614-1.102 2.386-1.71.402-.318.822-.641 1.254-.974 1.89-1.455 3.995-3.077 5.718-5.017 2.143-2.413 3.756-5.378 3.756-9.26 0-3.927-2.222-7.318-5.407-8.774-3.07-1.403-6.909-.958-10.343 2.266Z" clip-rule="evenodd"/>
</svg>
