<svg xmlns="http://www.w3.org/2000/svg" width="36" height="36" fill="none" viewBox="0 0 36 36">
  <path fill="#000" fill-rule="evenodd" d="M2.85 9A6.15 6.15 0 0 1 9 2.85h18A6.15 6.15 0 0 1 33.15 9v18A6.15 6.15 0 0 1 27 33.15H9A6.15 6.15 0 0 1 2.85 27V9ZM9 4.35A4.65 4.65 0 0 0 4.35 9v18c0 .78.192 1.514.53 2.159l7.19-7.19a.75.75 0 0 1 1.06 0l3.07 3.07 7.57-7.57a.75.75 0 0 1 1.06 0l6.82 6.82V9A4.65 4.65 0 0 0 27 4.35H9Zm22.65 21.585a.75.75 0 0 1-.68-.205l-6.67-6.67-7.57 7.57a.75.75 0 0 1-1.06 0l-3.07-3.07-6.67 6.67a.749.749 0 0 1-.155.12A4.635 4.635 0 0 0 9 31.65h18A4.65 4.65 0 0 0 31.65 27v-1.065ZM11.7 9.75a1.95 1.95 0 1 0 0 3.9 1.95 1.95 0 0 0 0-3.9ZM8.25 11.7a3.45 3.45 0 1 1 6.9 0 3.45 3.45 0 0 1-6.9 0Z" clip-rule="evenodd"/>
</svg>
