<svg xmlns="http://www.w3.org/2000/svg" width="36" height="36" fill="none" viewBox="0 0 36 36">
  <path fill="#000" fill-rule="evenodd" d="M2.85 6.8A3.95 3.95 0 0 1 6.8 2.85h6.4a.75.75 0 0 1 0 1.5H6.8A2.45 2.45 0 0 0 4.35 6.8v6.4a.75.75 0 0 1-1.5 0V6.8Zm19.2-3.2a.75.75 0 0 1 .75-.75h6.4a3.95 3.95 0 0 1 3.95 3.95v6.4a.75.75 0 0 1-1.5 0V6.8a2.45 2.45 0 0 0-2.45-2.45h-6.4a.75.75 0 0 1-.75-.75Zm-10.2 10.8a2.55 2.55 0 0 1 2.55-2.55h7.2a2.55 2.55 0 0 1 2.55 2.55v7.2a2.55 2.55 0 0 1-2.55 2.55h-7.2a2.55 2.55 0 0 1-2.55-2.55v-7.2Zm2.55-1.05c-.58 0-1.05.47-1.05 1.05v7.2c0 .58.47 1.05 1.05 1.05h7.2c.58 0 1.05-.47 1.05-1.05v-7.2c0-.58-.47-1.05-1.05-1.05h-7.2Zm-10.8 8.7a.75.75 0 0 1 .75.75v6.4a2.45 2.45 0 0 0 2.45 2.45h6.4a.75.75 0 0 1 0 1.5H6.8a3.95 3.95 0 0 1-3.95-3.95v-6.4a.75.75 0 0 1 .75-.75Zm28.8 0a.75.75 0 0 1 .75.75v6.4a3.95 3.95 0 0 1-3.95 3.95h-6.4a.75.75 0 0 1 0-1.5h6.4a2.45 2.45 0 0 0 2.45-2.45v-6.4a.75.75 0 0 1 .75-.75Z" clip-rule="evenodd"/>
</svg>
